<?xml version="1.0" standalone="no"?><!DOCTYPE svg PUBLIC "-//W3C//DTD SVG 1.1//EN" "http://www.w3.org/Graphics/SVG/1.1/DTD/svg11.dtd"><svg t="1753931523479" class="icon" viewBox="0 0 1024 1024" version="1.1" xmlns="http://www.w3.org/2000/svg" p-id="4877" xmlns:xlink="http://www.w3.org/1999/xlink" width="200" height="200"><path d="M624.512 802.304H158.1312v-174.7712c21.888-50.9952 54.8864-97.4848 102.3232-124.16 112.1792-68.2752 170.7008 107.3152 263.3728 131.6864 107.2896 29.2608 185.344-48.768 219.4688-136.5504 24.3968-68.3008 24.3968-263.3728 126.8224-268.2624 39.0144 0 39.0144-58.5216 0-53.6576-112.1792 9.7536-136.576 121.9328-156.0832 209.7408-9.7536 58.5216-19.5072 126.7968-63.4112 170.7008-53.632 58.5216-136.5504 24.3968-180.4544-24.3968-63.4112-82.9184-165.8112-136.5504-263.3728-58.5216a324.2496 324.2496 0 0 0-48.6656 52.4288V143.2064a41.472 41.472 0 1 0-82.944 0v700.544c0 22.912 18.5856 41.472 41.472 41.472l0.9216-0.0256h561.9968a188.3136 188.3136 0 0 1-55.0656-82.8928z" fill="#868F99" p-id="4878"></path><path d="M843.264 592.8448a156.9536 156.9536 0 1 0 0 313.9328 156.9536 156.9536 0 0 0 0-313.9328z m0 263.296a106.3424 106.3424 0 1 1 0-212.6592 106.3424 106.3424 0 0 1 0 212.6592z" fill="#868F99" p-id="4879"></path><path d="M866.8672 722.6624h40.2688a20.736 20.736 0 0 1 0 41.472H867.84v40.448a20.736 20.736 0 0 1-41.472 0v-40.2432h-40.2688a20.736 20.736 0 0 1 0-41.472h39.296v-40.448a20.736 20.736 0 1 1 41.472 0v40.2432z" fill="#868F99" p-id="4880"></path></svg>