<?xml version="1.0" standalone="no"?><!DOCTYPE svg PUBLIC "-//W3C//DTD SVG 1.1//EN" "http://www.w3.org/Graphics/SVG/1.1/DTD/svg11.dtd"><svg t="1753933073743" class="icon" viewBox="0 0 1024 1024" version="1.1" xmlns="http://www.w3.org/2000/svg" p-id="4428" xmlns:xlink="http://www.w3.org/1999/xlink" width="200" height="200"><path d="M725.333333 341.333333a42.666667 42.666667 0 0 1 0-85.333333h42.666667a170.666667 170.666667 0 0 1 170.666667 170.666667v341.333333a170.666667 170.666667 0 0 1-170.666667 170.666667H256a170.666667 170.666667 0 0 1-170.666667-170.666667V426.368a170.666667 170.666667 0 0 1 170.666667-170.666667h42.666667a42.666667 42.666667 0 1 1 0 85.333334H256a85.333333 85.333333 0 0 0-85.333333 85.333333V768a85.333333 85.333333 0 0 0 85.333333 85.333333h512a85.333333 85.333333 0 0 0 85.333333-85.333333v-341.333333a85.333333 85.333333 0 0 0-85.333333-85.333334h-42.666667z" fill="#000000" opacity=".3" p-id="4429"></path><path d="MNaN NaNmNaN NaNlNaN NaNqNaN NaN NaN NaNlNaN NaNqNaN NaN NaN NaNlNaN NaNqNaN NaN NaN NaNlNaN NaNqNaN NaN NaN NaNZ" fill="#000000" opacity=".3" p-id="4430"></path><path d="M512 102.997333l97.834667 97.834667a42.666667 42.666667 0 0 0 60.330666-60.330667l-128-128a42.666667 42.666667 0 0 0-60.330666 0l-128 128a42.666667 42.666667 0 0 0 60.330666 60.330667L512 102.997333z" fill="#000000" p-id="4431"></path></svg>