<?xml version="1.0" standalone="no"?><!DOCTYPE svg PUBLIC "-//W3C//DTD SVG 1.1//EN" "http://www.w3.org/Graphics/SVG/1.1/DTD/svg11.dtd"><svg t="1753932860952" class="icon" viewBox="0 0 1024 1024" version="1.1" xmlns="http://www.w3.org/2000/svg" p-id="9621" xmlns:xlink="http://www.w3.org/1999/xlink" width="200" height="200"><path d="M554.666667 554.666667m-42.666667 0l0 0q-42.666667 0-42.666667-42.666667l0-426.666667q0-42.666667 42.666667-42.666666l0 0q42.666667 0 42.666667 42.666666l0 426.666667q0 42.666667-42.666667 42.666667Z" fill="#000000" opacity=".3" p-id="9622"></path><path d="M725.333333 341.333333a42.666667 42.666667 0 0 1 0-85.333333h42.666667a170.666667 170.666667 0 0 1 170.666667 170.666667v341.333333a170.666667 170.666667 0 0 1-170.666667 170.666667H256a170.666667 170.666667 0 0 1-170.666667-170.666667V426.368a170.666667 170.666667 0 0 1 170.666667-170.666667h42.666667a42.666667 42.666667 0 1 1 0 85.333334H256a85.333333 85.333333 0 0 0-85.333333 85.333333V768a85.333333 85.333333 0 0 0 85.333333 85.333333h512a85.333333 85.333333 0 0 0 85.333333-85.333333v-341.333333a85.333333 85.333333 0 0 0-85.333333-85.333334h-42.666667z" fill="#000000" opacity=".3" p-id="9623"></path><path d="M609.834667 439.168a42.666667 42.666667 0 0 1 60.330666 60.330667l-128 128a42.666667 42.666667 0 0 1-60.330666 0l-128-128a42.666667 42.666667 0 0 1 60.330666-60.330667L512 537.002667l97.834667-97.834667z" fill="#000000" p-id="9624"></path></svg>