<?xml version="1.0" standalone="no"?><!DOCTYPE svg PUBLIC "-//W3C//DTD SVG 1.1//EN" "http://www.w3.org/Graphics/SVG/1.1/DTD/svg11.dtd"><svg t="1752732569623" class="icon" viewBox="0 0 1024 1024" version="1.1" xmlns="http://www.w3.org/2000/svg" p-id="6577" xmlns:xlink="http://www.w3.org/1999/xlink" width="200" height="200"><path d="M554.252 78l9.517 5.495a32 32 0 0 1 11.713 43.713l-77.737 134.644-64.943-37.495 77.737-134.644A32 32 0 0 1 554.252 78z" fill="#468FDC" p-id="6578"></path><path d="M842.436 244.383l9.517 5.495a32 32 0 0 1 11.713 43.713L785.93 428.235l-64.943-37.495 77.737-134.644a32 32 0 0 1 43.713-11.713z" fill="#468FDC" p-id="6579"></path><path d="M301.951 235.401L182.437 442.406l539.837 311.675 119.514-207.005-539.837-311.675m15.17-77.832l584.486 337.452a49.212 49.212 0 0 1 18.013 67.225L774.326 813.903a49.212 49.212 0 0 1-67.225 18.013L122.616 494.463a49.212 49.212 0 0 1-18.013-67.225l145.294-251.656a49.212 49.212 0 0 1 67.225-18.013z" fill="#468FDC" p-id="6580"></path><path d="M327.594 612.803L297.13 665.57l174.533 100.767 30.465-52.766-174.534-100.767m15.17-77.832l219.181 126.544a49.212 49.212 0 0 1 18.013 67.225l-56.244 97.417a49.212 49.212 0 0 1-67.223 18.01l-219.18-126.544a49.212 49.212 0 0 1-18.015-67.222l56.244-97.417a49.212 49.212 0 0 1 67.225-18.013z" fill="#468FDC" p-id="6581"></path><path d="M314.43 762.148l64.943 37.495-77.737 134.644A32 32 0 0 1 257.923 946l-9.517-5.495a32 32 0 0 1-11.713-43.713l77.737-134.644z" fill="#468FDC" p-id="6582"></path></svg>