<?xml version="1.0" standalone="no"?><!DOCTYPE svg PUBLIC "-//W3C//DTD SVG 1.1//EN" "http://www.w3.org/Graphics/SVG/1.1/DTD/svg11.dtd"><svg t="1757575656552" class="icon" viewBox="0 0 1030 1024" version="1.1" xmlns="http://www.w3.org/2000/svg" p-id="6484" xmlns:xlink="http://www.w3.org/1999/xlink" width="201.171875" height="200"><path d="M1017.76 701.44L726.24 992.96l-234.24-85.28c-22.72-7.52-60.16-32-54.24-73.44A69.92 69.92 0 0 1 496 775.84h3.68l35.04 7.04-143.2-144-1.44-2.24c-11.52-19.2-23.36-59.84 5.76-88.96s69.76-17.28 88.96-5.76l2.4 1.28 97.44 97.6 186.4-186.08z" fill="#03A9F4" p-id="6485"></path><path d="M1017.76 701.44l-6.24-6.4-288 288-229.12-83.2a89.12 89.12 0 0 1-32-19.36 50.24 50.24 0 0 1-16.8-36.96 61.28 61.28 0 0 1 0-7.52 57.76 57.76 0 0 1 21.44-37.6 67.2 67.2 0 0 1 30.4-14.4h2.08l62.4 12.32-163.2-162.72-0.8-1.28a78.72 78.72 0 0 1-11.2-39.68 52.96 52.96 0 0 1 53.92-53.92 80 80 0 0 1 39.84 11.2h1.28l103.04 103.04 186.24-185.6 240 240 6.24-6.24-6.24-6.4 6.24 6.4 6.24-6.4-252.48-252.64-186.24 186.24-92-92-3.2-1.92a100.8 100.8 0 0 0-48.96-13.76A71.52 71.52 0 0 0 368.8 592a100.8 100.8 0 0 0 13.76 48.96l1.44 2.24v0.96L507.84 768l-6.24-1.12H495.04A85.44 85.44 0 0 0 456.96 784a75.2 75.2 0 0 0-28 49.12 74.24 74.24 0 0 0 0 10.08 68.48 68.48 0 0 0 22.08 49.76 104.32 104.32 0 0 0 38.72 23.36l2.88-8.48-3.2 8.48 240 87.04L1030.4 701.44l-6.4-6.4z" fill="#455A64" p-id="6486"></path><path d="M946.24 453.92V104.96a32 32 0 0 0-32-32H109.76a32 32 0 0 0-32 32v804.48a32 32 0 0 0 32 32h279.36a32 32 0 0 0 0-64H141.76V136.96h740.48v316.96a32 32 0 1 0 64 0z" fill="#CFD8DC" p-id="6487"></path><path d="M946.24 453.92h8V104.96a39.84 39.84 0 0 0-40-40H109.76a40.16 40.16 0 0 0-28.32 11.68 40.16 40.16 0 0 0-11.68 28.32v804.48a39.84 39.84 0 0 0 40 40h279.36a40 40 0 0 0 0-80h-240V144.96h725.12v308.96a40 40 0 1 0 80 0h-16a24 24 0 1 1-48 0V128.96H133.76v756.48h256a24 24 0 0 1 0 48H109.76a24 24 0 0 1-24-24V104.96A24 24 0 0 1 92.8 88a24 24 0 0 1 16.96-7.04h804.48a24 24 0 0 1 24 24v348.96z" fill="#455A64" p-id="6488"></path></svg>