<?xml version="1.0" standalone="no"?><!DOCTYPE svg PUBLIC "-//W3C//DTD SVG 1.1//EN" "http://www.w3.org/Graphics/SVG/1.1/DTD/svg11.dtd"><svg t="1753932449417" class="icon" viewBox="0 0 1024 1024" version="1.1" xmlns="http://www.w3.org/2000/svg" p-id="7643" xmlns:xlink="http://www.w3.org/1999/xlink" width="200" height="200"><path d="M701.44 230.4L675.84 85.333333H348.16l-25.6 145.066667L273.066667 221.866667l29.013333-167.253334c1.706667-11.946667 11.946667-20.48 23.893333-20.48h372.053334c11.946667 0 23.893333 8.533333 25.6 20.48L750.933333 221.866667l-49.493333 8.533333z" fill="#333333" p-id="7644"></path><path d="M940.373333 252.586667H83.626667c-13.653333 0-25.6-11.946667-25.6-25.6s11.946667-25.6 25.6-25.6h856.746666c13.653333 0 25.6 11.946667 25.6 25.6s-11.946667 25.6-25.6 25.6z" fill="#333333" p-id="7645"></path><path d="M711.68 989.866667H312.32c-49.493333 0-88.746667-37.546667-92.16-87.04l-44.373333-675.84c0-6.826667 1.706667-13.653333 6.826666-18.773334 5.12-5.12 11.946667-8.533333 18.773334-8.533333h619.52c6.826667 0 13.653333 3.413333 18.773333 8.533333 5.12 5.12 6.826667 11.946667 6.826667 18.773334L802.133333 902.826667c-1.706667 49.493333-42.666667 87.04-90.453333 87.04zM230.4 252.586667l40.96 648.533333C273.066667 921.6 291.84 938.666667 312.32 938.666667h397.653333c22.186667 0 39.253333-17.066667 40.96-39.253334l40.96-648.533333H230.4z" fill="#333333" p-id="7646"></path><path d="M631.466667 798.72H392.533333c-13.653333 0-25.6-11.946667-25.6-25.6s11.946667-25.6 25.6-25.6h238.933334c13.653333 0 25.6 11.946667 25.6 25.6s-11.946667 25.6-25.6 25.6z" fill="#333333" p-id="7647"></path><path d="M822.613333 431.786667l-30.72 488.106666c-1.706667 29.013333-25.6 52.906667-56.32 52.906667H404.48c-29.013333 0-52.906667-22.186667-56.32-52.906667l-30.72-488.106666c-1.706667-39.253333 29.013333-73.386667 68.266667-73.386667h368.64c39.253333 0 69.973333 34.133333 68.266666 73.386667z" fill="#333333" opacity=".3" p-id="7648"></path></svg>