<?xml version="1.0" standalone="no"?><!DOCTYPE svg PUBLIC "-//W3C//DTD SVG 1.1//EN" "http://www.w3.org/Graphics/SVG/1.1/DTD/svg11.dtd"><svg t="1755133374662" class="icon" viewBox="0 0 1024 1024" version="1.1" xmlns="http://www.w3.org/2000/svg" p-id="3727" xmlns:xlink="http://www.w3.org/1999/xlink" width="200" height="200"><path d="M512 0C229.236364 0 0 229.236364 0 512s229.236364 512 512 512 512-229.236364 512-512S794.763636 0 512 0zM101.096727 548.305455a36.584727 36.584727 0 1 1 0-73.169455 36.584727 36.584727 0 0 1 0 73.122909zM512 64.465455a36.584727 36.584727 0 1 1 0 73.122909 36.584727 36.584727 0 0 1 0-73.122909z m0 898.420363a36.584727 36.584727 0 1 1 0-73.122909 36.584727 36.584727 0 0 1 0 73.122909z m300.544-671.185454l-197.306182 184.413091a110.173091 110.173091 0 1 1-204.706909-0.465455L274.757818 352.814545a43.287273 43.287273 0 1 1 61.253818-61.300363l135.773091 122.88a110.545455 110.545455 0 0 1 82.478546 0.186182l196.980363-184.087273a43.287273 43.287273 0 0 1 61.300364 61.253818z m110.359273 256.837818a36.584727 36.584727 0 1 1 0-73.169455 36.584727 36.584727 0 0 1 0 73.169455z" fill="#1296db" p-id="3728"></path></svg>