<?xml version="1.0" standalone="no"?><!DOCTYPE svg PUBLIC "-//W3C//DTD SVG 1.1//EN" "http://www.w3.org/Graphics/SVG/1.1/DTD/svg11.dtd"><svg t="1755080085723" class="icon" viewBox="0 0 1024 1024" version="1.1" xmlns="http://www.w3.org/2000/svg" p-id="25257" xmlns:xlink="http://www.w3.org/1999/xlink" width="200" height="200"><path d="M829.4 120.6H194.6c-53.7 0-97.4 43.7-97.4 97.4v407.6c0 53.7 43.7 97.4 97.4 97.4h281.3v180.4H548V723h281.3c53.7 0 97.4-43.7 97.4-97.4V218c0.1-53.7-43.6-97.4-97.3-97.4z m25.3 505c0 13.9-11.3 25.3-25.3 25.3H194.6c-13.9 0-25.3-11.3-25.3-25.3V218c0-13.9 11.3-25.3 25.3-25.3h634.8c13.9 0 25.3 11.3 25.3 25.3v407.6z" p-id="25258" fill="#1296db"></path><path d="M625.6 311.1H398.4c-26.9 0-48.7 21.8-48.7 48.7v2l18.1 124.3c1.2 25.8 22.6 46.4 48.6 46.4h191.2c26.1 0 47.4-20.6 48.6-46.4l18.1-124.3v-2c0-26.8-21.8-48.7-48.7-48.7z m-22.9 167.3H421.3l-16.5-113.1h214.3l-16.4 113.1z" p-id="25259" fill="#1296db"></path><path d="M243.944909 438.368016a27.3 27.3 0 1 0 53.138634-12.547731 27.3 27.3 0 1 0-53.138634 12.547731Z" p-id="25260" fill="#1296db"></path><path d="M750.370664 451.398411a27.3 27.3 0 1 0 38.607357-38.608704 27.3 27.3 0 1 0-38.607357 38.608704Z" p-id="25261" fill="#1296db"></path></svg>