<?xml version="1.0" standalone="no"?><!DOCTYPE svg PUBLIC "-//W3C//DTD SVG 1.1//EN" "http://www.w3.org/Graphics/SVG/1.1/DTD/svg11.dtd"><svg t="1752734781814" class="icon" viewBox="0 0 1024 1024" version="1.1" xmlns="http://www.w3.org/2000/svg" p-id="9846" xmlns:xlink="http://www.w3.org/1999/xlink" width="200" height="200"><path d="M922.047 854.436c15.464 0 28 12.536 28 28s-12.536 28-28 28h-707c-15.464 0-28-12.536-28-28s12.536-28 28-28h707z m-500-725.359l177.046 102.218c37.129 21.436 60 61.051 60 103.923v204.436c0 42.872-22.871 82.487-60 103.923L422.047 745.795c-37.128 21.436-82.872 21.436-120 0L125 643.577c-37.128-21.436-60-61.051-60-103.923V335.218c0-42.872 22.872-82.487 60-103.923l177.047-102.218c37.128-21.436 82.872-21.436 120 0z m509 563.359c15.464 0 28 12.536 28 28s-12.536 28-28 28h-198c-15.464 0-28-12.536-28-28s12.536-28 28-28h198zM330.642 177.235l-0.595 0.34L153 279.791a64.011 64.011 0 0 0-32 54.74v205.122a64 64 0 0 0 31.408 55.08l0.592 0.346 177.047 102.217a64 64 0 0 0 63.404 0.34l0.596-0.34L571.093 595.08a64.011 64.011 0 0 0 32-54.74V335.217a64 64 0 0 0-31.408-55.08l-0.592-0.346-177.046-102.218a64 64 0 0 0-63.405-0.34z m30.405 86.2c96.097 0 174 77.68 174 173.5 0 95.822-77.903 173.5-174 173.5-96.098 0-174-77.678-174-173.5 0-95.82 77.902-173.5 174-173.5z m570 267c15.464 0 28 12.537 28 28 0 15.465-12.536 28-28 28h-198c-15.464 0-28-12.535-28-28 0-15.463 12.536-28 28-28h198z m-570-211c-65.206 0-118 52.644-118 117.5 0 64.858 52.794 117.5 118 117.5 65.205 0 118-52.642 118-117.5 0-64.856-52.795-117.5-118-117.5z" fill="#121212" p-id="9847"></path></svg>