<?xml version="1.0" standalone="no"?><!DOCTYPE svg PUBLIC "-//W3C//DTD SVG 1.1//EN" "http://www.w3.org/Graphics/SVG/1.1/DTD/svg11.dtd"><svg t="1755080251050" class="icon" viewBox="0 0 1026 1024" version="1.1" xmlns="http://www.w3.org/2000/svg" p-id="30223" xmlns:xlink="http://www.w3.org/1999/xlink" width="200.390625" height="200"><path d="M604.5696 419.84c-11.4688-11.4688-25.1904-20.6848-40.96-27.4432-15.5648-6.7584-32.3584-10.0352-50.176-10.0352s-34.4064 3.2768-49.7664 10.0352c-15.5648 6.7584-29.0816 15.7696-40.7552 27.4432-11.4688 11.4688-20.6848 25.1904-27.2384 40.7552-6.5536 15.5648-10.0352 32.1536-10.0352 49.9712s3.2768 34.4064 10.0352 49.9712c6.7584 15.5648 15.7696 29.2864 27.2384 41.1648 11.4688 11.8784 25.1904 21.0944 40.7552 27.8528 15.5648 6.7584 31.9488 10.0352 49.7664 10.0352s34.4064-3.2768 50.176-10.0352c15.5648-6.7584 29.4912-15.9744 40.96-27.8528s20.6848-25.3952 27.2384-41.1648c6.7584-15.5648 10.0352-32.1536 10.0352-49.9712s-3.2768-34.4064-10.0352-49.9712-15.7696-29.0816-27.2384-40.7552z" fill="#2BA4E1" p-id="30224"></path><path d="M720.0768 0H308.0192C139.6736 0 2.048 137.6256 2.048 305.9712v412.0576C2.048 886.3744 139.6736 1024 308.0192 1024h412.0576c168.3456 0 305.9712-137.6256 305.9712-305.9712V305.9712C1026.048 137.6256 888.4224 0 720.0768 0z m22.528 547.4304c7.3728 10.0352 16.7936 17.2032 28.672 21.504 2.6624 1.4336 5.12 3.072 6.9632 4.7104 4.7104 2.6624 7.5776 7.168 9.216 12.9024 0.8192 4.7104 0.6144 10.4448-0.6144 17.2032-1.024 6.7584-3.072 13.5168-5.9392 20.2752-2.6624 6.9632-6.144 13.1072-10.0352 18.6368-3.8912 5.5296-8.192 9.4208-12.9024 11.8784-4.7104 2.2528-8.8064 3.4816-12.288 3.4816s-7.3728-0.8192-11.8784-2.2528c-3.8912-1.2288-8.8064-2.2528-14.7456-3.2768-5.9392-1.024-11.8784-1.2288-18.0224-0.6144-6.144 0.6144-12.288 1.8432-18.2272 3.8912-6.144 1.8432-11.264 5.3248-15.5648 10.0352-9.4208 9.8304-14.9504 21.0944-16.384 33.5872-1.4336 12.6976 0.2048 24.576 5.3248 36.0448 3.8912 7.7824 3.2768 15.7696-1.8432 23.552-2.2528 3.072-6.144 6.5536-11.264 9.8304s-10.6496 6.5536-16.7936 9.216-12.4928 4.9152-19.0464 6.5536c-6.5536 1.4336-12.6976 2.2528-17.8176 2.2528-3.4816 0-6.9632-1.4336-10.0352-4.096s-5.3248-5.7344-6.5536-8.8064h-0.6144c-4.3008-12.288-11.6736-22.7328-22.1184-31.5392-10.4448-8.8064-22.528-13.312-36.2496-13.312-13.312 0-25.3952 4.3008-36.2496 13.312-10.8544 8.8064-18.432 19.2512-22.7328 31.1296-1.8432 4.7104-4.9152 8.192-8.8064 10.24-3.8912 2.2528-8.192 3.2768-12.9024 3.2768-5.5296 0-11.6736-1.024-18.6368-2.8672-6.9632-1.8432-13.7216-4.3008-20.6848-7.3728-6.9632-2.8672-13.1072-6.5536-18.6368-10.24-5.5296-3.8912-9.6256-7.7824-12.288-11.8784-1.8432-2.6624-3.072-6.144-3.2768-9.8304-0.2048-3.6864 1.2288-9.0112 4.3008-15.5648 4.3008-9.0112 6.144-19.456 4.9152-31.1296-1.024-11.4688-6.144-22.3232-14.9504-32.1536-5.5296-5.9392-12.288-9.8304-20.0704-11.4688-7.7824-1.8432-15.36-2.4576-22.3232-2.048-8.192 0.4096-16.7936 1.8432-25.1904 4.7104-5.5296 1.4336-11.0592 1.2288-16.384-1.2288-4.3008-1.4336-8.3968-5.12-12.0832-10.8544s-6.9632-11.8784-10.0352-18.8416c-2.8672-6.9632-5.3248-13.9264-6.7584-21.2992-1.4336-7.3728-1.8432-13.312-1.2288-18.0224 1.2288-8.6016 5.12-14.1312 11.8784-16.384 11.8784-4.7104 22.3232-12.4928 31.9488-23.3472 9.4208-10.8544 14.1312-22.9376 14.1312-36.2496 0-13.7216-4.7104-25.8048-14.1312-36.0448-9.4208-10.24-20.2752-18.0224-32.1536-22.7328-3.4816-1.2288-6.5536-3.8912-8.8064-8.6016-2.2528-4.5056-3.4816-9.216-3.4816-13.9264 0-5.12 0.8192-10.8544 2.2528-17.2032 1.4336-6.3488 3.4816-12.288 6.144-18.2272 2.6624-5.9392 5.5296-11.264 8.8064-16.1792 3.2768-4.9152 6.9632-8.6016 10.8544-10.8544 3.072-1.8432 6.144-2.6624 9.0112-2.2528 2.8672 0.4096 6.144 1.2288 9.8304 2.2528 11.8784 4.7104 23.9616 6.144 36.864 4.3008 12.6976-1.8432 23.9616-7.3728 33.9968-16.7936 4.7104-4.7104 8.192-10.6496 10.24-17.408 2.2528-6.9632 3.4816-13.7216 4.096-20.2752 0.6144-6.5536 0.6144-12.6976 0-18.2272s-1.024-9.4208-1.4336-11.8784c-0.8192-2.2528-1.4336-5.12-2.048-8.192s-0.2048-5.9392 0.8192-8.192c2.2528-5.5296 6.5536-10.24 12.6976-14.336s12.6976-7.5776 19.8656-10.24c6.9632-2.6624 13.9264-4.7104 20.6848-6.144 6.7584-1.4336 11.8784-2.048 15.9744-2.048 5.12 0 9.0112 1.6384 12.0832 5.12 2.8672 3.2768 4.9152 6.7584 6.144 10.24 4.3008 10.6496 11.4688 19.8656 21.0944 28.0576 9.8304 8.192 21.504 12.0832 34.816 12.0832 13.7216 0 26.0096-3.8912 36.4544-11.4688 10.6496-7.7824 18.2272-17.408 22.3232-29.2864 1.4336-3.072 3.8912-6.5536 7.3728-9.8304 3.2768-3.2768 6.7584-5.12 10.24-5.12 5.5296 0 11.4688 0.8192 18.0224 2.2528s12.9024 3.6864 19.0464 6.5536c6.3488 2.6624 12.0832 6.3488 17.408 10.6496 5.3248 4.3008 9.4208 9.0112 12.6976 14.1312 1.8432 3.072 2.6624 6.5536 1.8432 10.24-0.8192 3.6864-1.4336 6.5536-2.2528 7.9872-5.12 11.4688-6.7584 23.3472-4.7104 36.0448 1.8432 12.6976 7.7824 23.552 16.9984 33.1776 9.4208 9.4208 21.0944 14.7456 34.816 15.5648 13.7216 1.024 26.4192-1.2288 38.2976-6.7584 3.072-1.8432 6.9632-2.6624 11.4688-2.2528s8.3968 2.2528 11.4688 5.3248c5.9392 5.5296 11.0592 13.9264 15.5648 25.1904s7.5776 22.528 9.0112 33.9968c0.8192 6.7584-0.2048 11.8784-3.2768 15.5648-3.072 3.6864-6.144 6.144-9.0112 7.3728-12.288 4.3008-22.528 11.8784-31.1296 22.7328-8.6016 10.8544-12.9024 23.1424-12.9024 36.864 0 13.312 3.4816 25.1904 10.8544 35.2256z" fill="#2BA4E1" p-id="30225"></path></svg>