<?xml version="1.0" standalone="no"?><!DOCTYPE svg PUBLIC "-//W3C//DTD SVG 1.1//EN" "http://www.w3.org/Graphics/SVG/1.1/DTD/svg11.dtd"><svg t="1755079790299" class="icon" viewBox="0 0 1024 1024" version="1.1" xmlns="http://www.w3.org/2000/svg" p-id="16884" xmlns:xlink="http://www.w3.org/1999/xlink" width="200" height="200"><path d="M501.271844 800.329555h33.16277v157.622644h-33.16277z" fill="#6E6E96" p-id="16885"></path><path d="M5.231427 941.370814h1008.0114v33.16277H5.231427z" fill="#6E6E96" p-id="16886"></path><path d="M516.481119 962.068528m-45.350087 0a45.350087 45.350087 0 1 0 90.700175 0 45.350087 45.350087 0 1 0-90.700175 0Z" fill="#FFC65F" p-id="16887"></path><path d="M516.481119 1024c-34.149362 0-61.931472-27.78211-61.931472-61.931472 0-34.145217 27.78211-61.927327 61.931472-61.927327s61.931472 27.78211 61.931472 61.927327c0 34.149362-27.78211 61.931472-61.931472 61.931472z m0-90.700175a28.79772 28.79772 0 0 0-28.768702 28.764557 28.801865 28.801865 0 0 0 28.768702 28.768703 28.801865 28.801865 0 0 0 28.768703-28.768703 28.79772 28.79772 0 0 0-28.768703-28.764557z" fill="#6E6E96" p-id="16888"></path><path d="M375.373535 785.016646h-16.568949c-0.012436 0 7.498931 1.637412 16.568949 0z m298.763391-0.016581c-43.94896 0.016581-47.783406-36.450029-48.052853-45.839239V682.904333H406.849148v54.055315c0 35.426129-17.572123 45.582227-31.475613 48.040417" fill="#F0F0FF" p-id="16889"></path><path d="M366.307662 802.435391c-7.548675 0-16.28292-1.484034-20.772329-7.48235l-19.864499-26.51778H373.752704c5.521601-1.13168 16.515059-5.115357 16.515059-31.475613v-70.6367h252.40184v72.589158c0.791761 24.374636 17.522378 29.506574 31.442451 29.506574h0.020727l0.016581 33.16277h-0.037308c-46.378133 0-63.784442-33.365892-64.59693-61.943909l-0.008291-0.472569v-39.675109h-186.0763v37.47393c0 50.813654-31.492195 61.931472-45.109657 64.3565v0.016581c-2.33383 0.41868-6.902001 1.098517-12.013214 1.098517z" fill="#6E6E96" p-id="16890"></path><path d="M132.041713 601.825507V118.270872c0-33.030119 27.023512-60.057776 60.066066-60.057775h648.721808c33.0467 0 60.070212 27.027657 60.070212 60.057775V601.821361" fill="#9F9FBD" p-id="16891"></path><path d="M900.90809 553.764363v69.061468c0 33.042555-27.035948 60.074357-60.070212 60.074357H192.107779c-33.038409 0-60.066066-27.040093-60.066066-60.074357v-69.061468h768.866377z" fill="#F0F0FF" p-id="16892"></path><path d="M840.837878 699.485718H192.107779c-42.261805 0-76.647451-34.389792-76.647451-76.655742v-85.642852h802.033292v85.642852c-0.004145 42.26595-34.389792 76.655742-76.655742 76.655742zM148.623097 570.345748v52.480083c0 23.980828 19.507999 43.492972 43.484682 43.492972h648.730099c23.980828 0 43.488827-19.512145 43.488827-43.492972v-52.480083H148.623097z" fill="#6E6E96" p-id="16893"></path><path d="M148.623097 601.825507h-33.162769V118.270872c0-42.257659 34.381501-76.639161 76.647451-76.63916h648.721808c42.26595 0 76.651597 34.381501 76.651597 76.63916V601.821361h-33.16277V118.270872c0-23.972537-19.507999-43.476391-43.488827-43.47639H192.107779c-23.976682 0-43.484682 19.503854-43.484682 43.47639v483.554635z" fill="#6E6E96" p-id="16894"></path><path d="M132.041713 524.547963h768.862232v16.962757H132.041713zM406.857439 682.904333h219.226634v38.336162H406.857439z" fill="#6E6E96" opacity=".15" p-id="16895"></path><path d="M690.76391 801.598031H320.111924a16.581385 16.581385 0 0 1 0-33.16277h370.651986a16.581385 16.581385 0 0 1 0 33.16277z" fill="#6E6E96" p-id="16896"></path><path d="M840.837878 637.798821H192.107779c-33.038409 0-60.066066-27.031803-60.066066-60.066066v40.093788c0 33.025973 27.019367 60.061921 60.066066 60.061921h648.734244c33.034264 0 60.074357-27.031803 60.074358-60.061921v-40.093788c-0.008291 33.0467-27.056675 60.066066-60.078503 60.066066z" fill="#6E6E96" opacity=".15" p-id="16897"></path><path d="M197.123648 118.739297h643.65205v371.957769H197.123648z" fill="#A2C8F2" p-id="16898"></path><path d="M426.966513 486.244964l406.513376-367.505667v118.685407l-269.613317 248.82026z" fill="#DEEFFF" opacity=".31" p-id="16899"></path><path d="M833.479889 237.424704l-269.613317 248.82026h269.613317z" fill="#FFFFFF" opacity=".31" p-id="16900"></path><path d="M840.775698 507.278451H197.123648a16.581385 16.581385 0 0 1-16.581385-16.581385V118.739297a16.581385 16.581385 0 0 1 16.581385-16.581385h643.65205a16.581385 16.581385 0 0 1 16.581385 16.581385v371.957769a16.581385 16.581385 0 0 1-16.581385 16.581385z m-627.070665-33.16277h610.48928V135.320681H213.705033v338.795z" fill="#6E6E96" p-id="16901"></path></svg>